<?xml version="1.0" encoding="UTF-8" standalone="no"?>
<!DOCTYPE svg PUBLIC "-//W3C//DTD SVG 1.0//EN" "http://www.w3.org/TR/2001/REC-SVG-20010904/DTD/svg10.dtd">
<svg xmlns="http://www.w3.org/2000/svg" width="365" height="500" version="1">
  <path fill-rule="evenodd" d="M242.56 10v102.73l-.56 1.68-.56.6-1.68.6-2.25-1.1V10h5.1m-5 126.86v-1.12l1.2-1.12 1.2-.56 1.7.56 1.2 2.24v90.94l-.6 1.12-.5 1.13H239l-1.17-1.13v-92.06M128.03 10v102.73l-.56 1.68-2.3 1.2-1.7-.5-.58-.5-.6-1.6V10h5.6m-5.6 126.86l1.1-2.24 1.7-.56 1.1.56 1.1 1.12.5 1.12v90.94l-.5 1.12-1.2 1.13h-2.8l-.6-1.13-.6-1.12v-90.94m0 217.8V251.38l.5-1.13.6-1.12h2.8l1.1 1.12v104.4H122m115.05 0v-104.4l1.1-1.12h2.8l.53 1.12.55 1.13v103.28H237M354.8 242.4H252.1l-1.68-.57-.56-.56-.56-1.68 1.12-2.3 1.7-.6h102.7v5.6m0-115.1h-104.4l-1.12-2.2.56-1.7.56-1.1h104.4v5m-217.8 0h-1.1l-1.1-1.2-.6-1.1.58-1.7 1.1-1.1h93.2l1.1 1.1.58 1.7-.57 1.1-1.1 1.1h-92m0 115l-2.2-1.1-.6-1.7.6-1.2 1.1-1.1 1.1-.6H228l1.12.6 1.1 1.1.58 1.1-.57 1.6L228 242h-91m-126.83-5.6H112.9l1.68.6 1.12 2.3-.56 1.66-.56.55-1.7.6H10.2v-5.6M10.17 122h104.4l.57 1.13.56 1.66-1.12 2.3H10.18V122m314.34 205.6l-78.02-78-.57-1.13v-1.1l.56-1.13 1.1-1.1h1.7l78.6 78.6-3.4 3.9m-284.1 0l78-78.04.5-1.2v-1.1l-.6-1.1-1.1-1.2H116l-1.66 1.1L37 323.7l3.38 3.92m0-290.8l78.05 77.48.6 1.14v1.7l-.57 1.1-1.1.57h-1.1l-1.7-.5-77.5-78 3.36-3.3m287.45 3.4l-77.5 78-1.1.6h-1.7l-1.13-.6-.6-1.1v-1.7l.53-1.1L324.4 37l3.4 3.37m-192.5 78.1l-1.1.58h-1.1l-1.7-.57-.56-1.1v-1.7l.54-1.1 43.24-42.7 1.13-.56h1.1l1.1.54.56 1.14v1l-.5 1.1-42.6 43.22m94.3.02l1.2.56h1.1l1.7-.56.6-1.12v-1.7l-.5-1.1-43.2-42.67-1.1-.56h-1.1l-1.1.5-1.1 1.1V74l1.1 1.1 42.67 43.22M213.4 40.3l-23 23.03-1.15.56h-1.14l-1.6-.6-.5-1.2v-1.7l.6-1.1 23-22.5 4 3.3m-61.7 0l23 23 1.1.6h1.2l1.1-.6 1.1-1.2v-1.7l-23.6-23.5-3.9 3.3m-16.5 192.7l-1.1 1.1h-1.6l-1.1-1.2-.5-1.1v-1.1l.6-1.1 42.7-43.2 1.7-.57h1.1l1.1.56.5 1.1v1.7l-.6 1.1-42.6 42.66m94.3 0l1.18 1.1h1.1l1.7-1.14.6-1.13v-1.1l-.6-1.1-43.2-43.2-1.1-.6H188l-1.1.6-.55 1.1v1.7l.57 1.1 42.65 42.6m0-101.6l1.13-.6h1.14l1.68.5.57 1.1v1.7l-.6 1.1-43.2 42.65-1.1 1.1H188l-1.1-1.12-.55-1.1v-1.1l.56-1.18 42.7-43.2m-94.3 0l-1.1-.53h-1.7l-1.1.5-.5 1.1v1.7l.6 1.1 42.6 42.8 1.7 1.1h1.1l1.1-1.13.6-1.1v-1.1l-.5-1.14-42.6-43.2m94.3 115.1l1.1-.6h1.1l1.7.6.6 1.14v1.2l-.52 1.64-43.3 42.8-1.1.58h-1.1l-1.1-.6-.56-1.14V290l.54-1.1 42.7-42.66m-94.3 0l-1.1-.6h-1.6l-1.1.6-.53 1.1v1.1l.56 1.68 42.64 42.66 1.7.56h1.1l1.1-.57.55-1.1V290l-.5-1.1-42.7-42.7m115-13.4l-1.1 1.1h-1.68l-1.14-1.1-.6-1.1v-1.1l.54-1.1 42.66-43.2 1.17-.5h1.6l1.13.55.5 1.1v1.7l-.58 1.1-42.7 42.7m0-101.6l-1.1-.6h-1.7l-1.1.55-.6 1.1v1.7l.55 1.1 43.7 43.7h1.7l1.1-1.1.6-1.14v-1.1l-.6-1.14-42.67-43.2M114.5 232.9l1.12 1.15h1.68l1.13-1.14.57-1.1v-1.1l-.56-1.1-42.66-43.2-1.1-.5H73l-1.1.6-.58 1.1v1.7l.57 1.1 42.6 42.6m-.1-101.6l1.1-.5h1.6l1.1.6.5 1.1v1.7l-.6 1.1-43.8 43.8H73l-1.12-1.1-.56-1.1v-1.1l.57-1.1 42.6-43.2m-74.1 20.2L63.5 174l.5 1.7v1.12l-.56 1.1-1.17.56h-1.6l-1.14-.56-22.47-22.5 3.37-3.95m0 61.74l23.02-23 .55-1.1V188l-.55-1.7-1.14-.55h-1.6l-1.1.55-22.4 23 3.4 3.92m111.2 110.6l23-22.4 1.2-.5h1.1l1.1.55 1.2 1.1v1.13l-1.1 1.7-22.4 22.4-3.9-3.94m61.7 0l-23-22.45-1.1-.5h-1.2l-1.6.6-.5 1.1v1.1l.6 1.7 23 22.4 4-3.9M325 213.3l-23.05-23-.5-1.1V188l.55-1.7 1.16-.56h1.7l1.1.56 22.4 23-3.4 3.92m0-61.75l-23 23-.52 1.14v1.1l.55 1.1 1.1 1.1h1.7l23.5-23.5-3.4-3.9M204.4 452.9v6.17l-1.7-1.68-1.68-1.2-2.24-1.2h-2.25l-2.24.5-1.7.5-1.7 1.7-.6 2.2.5 2.2 1.1 2.2 2.8 1.6 1.1.6 1.7.5 3.3 2.2 2.2 1.1c9.2 14.5-5.1 22.25-19.1 18v-7.88c9.2 12.5 27.3-1.3 5.6-9.54-13.9-10 2-25.6 14.6-18.5m25.2-.55h19.1v4h-12.3v11.2H248v4.5h-11.8v12.9h12.93v4.5h-19.7v-37m41.53 0h6.7v32.57h12.9v4.5H271v-37m-171.77 0c9.3-.6 14.65 10.4 5.6 16.8 5.72 5 7.75 6.7 5.04 14.6-7.3 9.1-13.6 4.1-24.7 5.6v-37h14zm3.9 6.7l.56 1.7.6 1.6-.6 1.7-1.1 1.6c-2.8 2.2-5.2 5.5-1.7 8.4 10.1 7.5-.6 14.3-9 11.2v-29l2.8-.56h2.8l3.4 1.13.6.5 1.1.5.5 1.1m49.4-6.7l.5.5.6 1.1v1.7l1.1 1.7c1.3 4.2 2.6 8.3 4.5 12.3 1.4 5.7 4.6 13.6 6.7 19.6h-6.8c-1.5-4.3-4.5-8.3-4.5-12.97h-15.1c-1.9 3.4-3.4 9.65-5.1 12.9h-6.2c2.9-6.64 5.23-13.4 7.9-20.2 4.6-9.4 3.2-18.47 16.3-16.83zm.5 19.6h-11.7c1.4-3.7 4.2-13.4 6.2-15.8l.5.5.5 1.7.54 2.2 1.1 2.8.5 3.36 1.1 2.8 1.1 2.24m-24-43.5c-.06 6.96 6.12 8.4 11.8 7.88l2.8-1.1 1.65-1.17 1.7-2.3.5-2.3V402h6.8c-.5 16.8 6 37.7-16.8 38.15-22.8-2.6-12.2-21.04-15.1-38.17h6.8v26m75.22 7.3h.54v-.6l.57-.56v-32h5.6v31.4l-.55 2.27-1.7 2.3-1.7 1.2-2.8.6h-5.05c-2.8-6.7-5.6-13.7-9-20.2l-.6-2.2-1.1-1.7-.54-2.2-1.1-1.7-.56-1.1-.53-1.7-.6-1.1-.53-.5H184V440h-5.6v-37.62h11.2v.56l.56.56.6 1.12.55 1.7 1.2 1.67.6 2.2 1.1 2.8 1.1 2.2c2.45 7 6.36 13.2 9 20.2"/>
  <path d="M236.4 440h6.16v-37.62h-6.17v37.6z"/>
</svg>
